<svg id="Group_23" data-name="Group 23" xmlns="http://www.w3.org/2000/svg" xmlns:xlink="http://www.w3.org/1999/xlink" width="107.313" height="56.374" viewBox="0 0 107.313 56.374">
  <defs>
    <clipPath id="clip-path">
      <rect id="Rectangle_12" data-name="Rectangle 12" width="107.313" height="56.374" fill="#f7fcfe"/>
    </clipPath>
  </defs>
  <g id="Group_5" data-name="Group 5" clip-path="url(#clip-path)">
    <path id="Path_9" data-name="Path 9" d="M2.284,124.4a4.275,4.275,0,0,1-1.676-1.659A4.777,4.777,0,0,1,0,120.332a4.729,4.729,0,0,1,.608-2.4,4.291,4.291,0,0,1,1.676-1.65,4.926,4.926,0,0,1,2.423-.59,4.7,4.7,0,0,1,2.111.46A3.508,3.508,0,0,1,8.285,117.5l-.921.625a2.88,2.88,0,0,0-1.146-1.016,3.4,3.4,0,0,0-1.511-.339,3.576,3.576,0,0,0-1.78.443,3.112,3.112,0,0,0-1.233,1.259,4.139,4.139,0,0,0,0,3.726,3.124,3.124,0,0,0,1.233,1.251,3.583,3.583,0,0,0,1.78.443,3.472,3.472,0,0,0,1.511-.33,2.812,2.812,0,0,0,1.146-1.007l.921.625a3.493,3.493,0,0,1-1.476,1.347,4.711,4.711,0,0,1-2.1.46,4.927,4.927,0,0,1-2.423-.591" transform="translate(0 -71.895)" fill="#f7fcfe"/>
    <rect id="Rectangle_8" data-name="Rectangle 8" width="1.233" height="12.889" transform="translate(10.666 40.116)" fill="#f7fcfe"/>
    <path id="Path_10" data-name="Path 10" d="M47.279,120.714H39.636a3.264,3.264,0,0,0,1.094,2.3,3.633,3.633,0,0,0,2.5.877,3.943,3.943,0,0,0,1.563-.3,3.416,3.416,0,0,0,1.233-.895l.695.8A3.918,3.918,0,0,1,45.2,124.6a5.146,5.146,0,0,1-2.006.382,5.075,5.075,0,0,1-2.493-.6,4.316,4.316,0,0,1-1.693-1.659,4.729,4.729,0,0,1-.608-2.4,4.9,4.9,0,0,1,.582-2.4,4.215,4.215,0,0,1,1.6-1.65,4.465,4.465,0,0,1,2.284-.59,4.421,4.421,0,0,1,2.276.59,4.19,4.19,0,0,1,1.581,1.641,4.946,4.946,0,0,1,.573,2.406ZM40.652,117.6a3.307,3.307,0,0,0-1.016,2.2h6.479a3.312,3.312,0,0,0-1.016-2.2,3.354,3.354,0,0,0-4.447,0" transform="translate(-23.865 -71.895)" fill="#f7fcfe"/>
    <path id="Path_11" data-name="Path 11" d="M73.357,116.587a3.459,3.459,0,0,1,.955,2.649V124.9H73.131v-1.424a2.828,2.828,0,0,1-1.225,1.111,4.287,4.287,0,0,1-1.919.4,3.761,3.761,0,0,1-2.432-.73,2.51,2.51,0,0,1-.061-3.8,4.122,4.122,0,0,1,2.683-.712h2.9v-.556a2.343,2.343,0,0,0-.66-1.8,2.727,2.727,0,0,0-1.928-.617,4.908,4.908,0,0,0-1.668.287,4.2,4.2,0,0,0-1.372.791l-.556-.921a4.935,4.935,0,0,1,1.668-.912,6.489,6.489,0,0,1,2.05-.321,3.87,3.87,0,0,1,2.745.894m-1.39,6.948a2.854,2.854,0,0,0,1.112-1.38v-1.494H70.213q-2.345,0-2.345,1.633a1.494,1.494,0,0,0,.608,1.259,2.768,2.768,0,0,0,1.7.46,3.245,3.245,0,0,0,1.789-.478" transform="translate(-41.419 -71.895)" fill="#f7fcfe"/>
    <path id="Path_12" data-name="Path 12" d="M102.9,116.692a3.9,3.9,0,0,1,1.016,2.91v5.3h-1.233v-5.176a3.031,3.031,0,0,0-.712-2.172,2.677,2.677,0,0,0-2.032-.746,3.122,3.122,0,0,0-2.336.877,3.313,3.313,0,0,0-.86,2.423V124.9H95.508v-9.137h1.181v1.685a3.431,3.431,0,0,1,1.4-1.294,4.483,4.483,0,0,1,2.076-.46,3.735,3.735,0,0,1,2.736,1" transform="translate(-59.351 -71.895)" fill="#f7fcfe"/>
    <path id="Path_13" data-name="Path 13" d="M147.92,116.275a4.163,4.163,0,0,1,1.633,1.642,5.263,5.263,0,0,1,0,4.846,4.176,4.176,0,0,1-1.624,1.641,4.677,4.677,0,0,1-2.336.582,4.321,4.321,0,0,1-2.006-.46,3.8,3.8,0,0,1-1.468-1.347v5.09h-1.234V115.763h1.181v1.807a3.8,3.8,0,0,1,1.468-1.39,4.3,4.3,0,0,1,2.058-.486,4.7,4.7,0,0,1,2.327.581m-.677,7.174a3.129,3.129,0,0,0,1.224-1.26,3.83,3.83,0,0,0,.443-1.858,3.778,3.778,0,0,0-.443-1.85,3.2,3.2,0,0,0-1.224-1.26,3.582,3.582,0,0,0-3.482,0,3.217,3.217,0,0,0-1.216,1.26,3.783,3.783,0,0,0-.443,1.85,3.835,3.835,0,0,0,.443,1.858,3.141,3.141,0,0,0,1.216,1.26,3.647,3.647,0,0,0,3.482,0" transform="translate(-87.549 -71.895)" fill="#f7fcfe"/>
    <path id="Path_14" data-name="Path 14" d="M172.681,124.388a4.373,4.373,0,0,1-1.668-1.659,5.032,5.032,0,0,1,0-4.794,4.31,4.31,0,0,1,1.668-1.65,5.094,5.094,0,0,1,4.76,0,4.246,4.246,0,0,1,1.659,1.65,5.091,5.091,0,0,1,0,4.794,4.308,4.308,0,0,1-1.659,1.659,5.025,5.025,0,0,1-4.76,0m4.126-.938a3.088,3.088,0,0,0,1.207-1.26,4.2,4.2,0,0,0,0-3.717,3.088,3.088,0,0,0-1.207-1.26,3.663,3.663,0,0,0-3.492,0,3.143,3.143,0,0,0-1.216,1.26,4.123,4.123,0,0,0,0,3.717,3.143,3.143,0,0,0,1.216,1.26,3.665,3.665,0,0,0,3.492,0" transform="translate(-105.895 -71.895)" fill="#f7fcfe"/>
    <path id="Path_15" data-name="Path 15" d="M212.445,115.877l-3.457,9.137h-1.164l-2.883-7.487-2.884,7.487h-1.163l-3.439-9.137h1.181l2.866,7.764,2.935-7.764h1.06l2.918,7.764,2.9-7.764Z" transform="translate(-122.703 -72.009)" fill="#f7fcfe"/>
    <path id="Path_16" data-name="Path 16" d="M248.451,120.714h-7.643a3.262,3.262,0,0,0,1.094,2.3,3.632,3.632,0,0,0,2.5.877,3.943,3.943,0,0,0,1.563-.3,3.409,3.409,0,0,0,1.233-.895l.7.8a3.923,3.923,0,0,1-1.52,1.112,5.146,5.146,0,0,1-2.006.382,5.076,5.076,0,0,1-2.493-.6,4.32,4.32,0,0,1-1.693-1.659,4.725,4.725,0,0,1-.608-2.4,4.892,4.892,0,0,1,.582-2.4,4.213,4.213,0,0,1,1.6-1.65,4.463,4.463,0,0,1,2.284-.59,4.416,4.416,0,0,1,2.275.59,4.184,4.184,0,0,1,1.581,1.641,4.946,4.946,0,0,1,.573,2.406Zm-6.627-3.118a3.31,3.31,0,0,0-1.016,2.2h6.479a3.307,3.307,0,0,0-1.017-2.2,3.354,3.354,0,0,0-4.446,0" transform="translate(-148.878 -71.895)" fill="#f7fcfe"/>
    <path id="Path_17" data-name="Path 17" d="M272.282,116.163a4.4,4.4,0,0,1,2.128-.469v1.2l-.295-.017a2.918,2.918,0,0,0-2.259.885,3.532,3.532,0,0,0-.816,2.484V124.9h-1.233v-9.137h1.181v1.789a2.987,2.987,0,0,1,1.294-1.389" transform="translate(-167.665 -71.895)" fill="#f7fcfe"/>
    <path id="Path_18" data-name="Path 18" d="M26.466,16.976h3.386V29.708a16.3,16.3,0,0,1-5.531,3.148,20.56,20.56,0,0,1-6.724,1.1,18.452,18.452,0,0,1-9.013-2.194,16.179,16.179,0,0,1-6.295-6.08A16.823,16.823,0,0,1,0,16.976a16.826,16.826,0,0,1,2.289-8.7,16.189,16.189,0,0,1,6.295-6.08A18.549,18.549,0,0,1,17.644,0a19.562,19.562,0,0,1,7.01,1.216,13.945,13.945,0,0,1,5.388,3.6L27.849,7.057a13.724,13.724,0,0,0-10.062-3.91,14.986,14.986,0,0,0-7.32,1.788A13.144,13.144,0,0,0,5.341,9.895a13.737,13.737,0,0,0-1.86,7.082,13.6,13.6,0,0,0,1.86,7.057,13.41,13.41,0,0,0,5.1,4.96,14.691,14.691,0,0,0,7.3,1.812,14.537,14.537,0,0,0,8.727-2.575Z" transform="translate(0 0)" fill="#009ee0"/>
    <path id="Path_19" data-name="Path 19" d="M137.718.756v33.38h-3.385V7.432l-13.114,22.46h-1.669L106.436,7.575V34.136H103.05V.756h2.909l14.5,24.749L134.809.756Z" transform="translate(-64.038 -0.47)" fill="#009ee0"/>
    <rect id="Rectangle_9" data-name="Rectangle 9" width="23.605" height="3.052" transform="translate(83.707 30.615)" fill="#009ee0"/>
    <path id="Path_25" data-name="Path 25" d="M0,0H23.6V3.052H0Z" transform="translate(83.707 0.286)" fill="#009ee0"/>
    <rect id="Rectangle_11" data-name="Rectangle 11" width="23.605" height="3.052" transform="translate(83.707 15.45)" fill="#009ee0"/>
  </g>
</svg>
